<svg width="29" height="25" viewBox="0 0 29 25" fill="none" xmlns="http://www.w3.org/2000/svg">
<path d="M28.96 4.57001H27.43V22.86H28.96V4.57001Z" fill="#000001"/>
<path d="M27.43 22.86H24.39V24.38H27.43V22.86Z" fill="#000001"/>
<path d="M24.39 21.33H21.34V22.86H24.39V21.33Z" fill="#000001"/>
<path d="M21.34 19.81H16.77V21.33H21.34V19.81Z" fill="#000001"/>
<path d="M22.86 12.19H18.29V13.71H22.86V12.19Z" fill="#000001"/>
<path d="M22.86 7.62H18.29V9.13999H22.86V7.62Z" fill="#000001"/>
<path d="M22.86 3.04999H18.29V4.56999H22.86V3.04999Z" fill="#000001"/>
<path d="M24.39 0H16.77V1.52H24.39V0Z" fill="#000001"/>
<path d="M18.29 9.14001H16.77V10.67H18.29V9.14001Z" fill="#000001"/>
<path d="M18.29 4.57001H16.77V6.10001H18.29V4.57001Z" fill="#000001"/>
<path d="M16.77 1.51999H15.24V3.04999H16.77V1.51999Z" fill="#000001"/>
<path d="M16.77 21.33H12.2V22.86H16.77V21.33Z" fill="#000001"/>
<path d="M13.72 1.51999H12.2V3.04999H13.72V1.51999Z" fill="#000001"/>
<path d="M12.2 19.81H7.62V21.33H12.2V19.81Z" fill="#000001"/>
<path d="M12.2 9.14001H10.67V10.67H12.2V9.14001Z" fill="#000001"/>
<path d="M12.2 4.57001H10.67V6.10001H12.2V4.57001Z" fill="#000001"/>
<path d="M10.67 12.19H6.09998V13.71H10.67V12.19Z" fill="#000001"/>
<path d="M10.67 7.62H6.09998V9.13999H10.67V7.62Z" fill="#000001"/>
<path d="M10.67 3.04999H6.09998V4.56999H10.67V3.04999Z" fill="#000001"/>
<path d="M12.2 0H4.58002V1.52H12.2V0Z" fill="#000001"/>
<path d="M7.62002 21.33H4.58002V22.86H7.62002V21.33Z" fill="#000001"/>
<path d="M12.2 16.76V15.24H7.62003V16.76H4.58003V1.51999H3.05003V3.04999H1.53003V4.56999H3.05003V19.81H7.62003V18.29H12.2V19.81H16.77V18.29H21.34V19.81H25.91V4.56999H27.43V3.04999H25.91V1.51999H24.39V16.76H21.34V15.24H16.77V16.76H15.24V3.04999H13.72V16.76H12.2Z" fill="#000001"/>
<path d="M4.58003 22.86H1.53003V24.38H4.58003V22.86Z" fill="#000001"/>
<path d="M1.53 4.57001H0V22.86H1.53V4.57001Z" fill="#000001"/>
</svg>
